<?xml version="1.0" encoding="UTF-8"?>
<svg width="38px" height="22px" viewBox="0 0 38 22" version="1.1" xmlns="http://www.w3.org/2000/svg" xmlns:xlink="http://www.w3.org/1999/xlink">
    <title>small logo@1x</title>
    <g id="Extensions" stroke="none" stroke-width="1" fill="none" fill-rule="evenodd">
        <g id="3-menu-and-header" transform="translate(-20.000000, -20.000000)" fill="#FFFFFF" fill-rule="nonzero">
            <path d="M31.8935574,20 C34.9422971,20 38.1583772,21.1156026 40.3742765,22.9222547 L37.4099305,26.7416102 C35.8576832,25.4063662 33.7758697,24.5910364 31.8627451,24.5910364 C28.3193277,24.5910364 25.6078431,27.3641457 25.6078431,30.9691877 C25.6078431,34.6358543 28.3501401,37.4089636 31.9243697,37.4089636 C33.0019208,37.4089636 34.3702395,37.0309655 35.6338819,36.4161995 L35.745098,36.3613445 L35.7449168,30.9691877 L40.4901961,30.9691877 L40.4901961,39.1960784 C38.2113679,40.8064504 34.6441577,41.9673867 31.6499779,41.9993243 L31.5238095,42 C24.9607843,42 20,37.254902 20,30.9691877 C20,24.7142857 25.0840336,20 31.8935574,20 Z M57.8081069,20 L48.9432855,30.9691015 L57.8548691,42 L50.6674412,42 L42.2995387,30.9691877 L50.620679,20 L57.8081069,20 Z" id="small-logo"></path>
        </g>
    </g>
</svg>